<svg width="207" height="72" viewBox="0 0 207 72" fill="none" xmlns="http://www.w3.org/2000/svg">
<path d="M65.9429 49.2866C71.9078 36.7423 64.3992 20.6245 49.172 13.2866C33.9447 5.94861 16.7652 10.1692 10.8003 22.7134C4.83547 35.2577 12.3441 51.3755 27.5713 58.7134C42.7985 66.0514 59.9781 61.8309 65.9429 49.2866Z" fill="#FFFEF3" stroke="#1D1D1B" stroke-miterlimit="10"/>
<path d="M94.5387 23.1411L90.5283 48.1722H78.0961L74.0857 23.1411H80.6451L84.3156 45.8525L87.9861 23.1411H94.5455H94.5387Z" fill="#FEFDF4"/>
<path d="M95.9998 22.4021V16.7362H102.512V22.4021H95.9998ZM96.0542 48.1722V23.1411H102.566V48.1722H96.0542Z" fill="#FEFDF4"/>
<path d="M117.099 28.4101H112.354V38.3117C112.354 41.7126 112.551 43.4849 114.652 43.4849H116.902V48.1654H114.652C108.731 48.2133 105.89 45.0108 105.89 39.4408C105.89 35.7935 105.843 32.1463 105.843 28.4032H104.327V23.1343H105.843V17.222H112.354V23.1343H117.099V28.4032V28.4101Z" fill="#FEFDF4"/>
<path d="M130.802 23.1411V28.4101H126.058V48.1654H119.546V28.4101H118.03V23.1411H119.893C120.722 19.3502 123.516 17.2289 128.362 17.2289H130.612V21.9094H128.362C127.383 21.9094 126.799 22.3542 126.452 23.1411H130.809H130.802Z" fill="#FEFDF4"/>
<path d="M143.574 39.694H149.155C149.155 45.9004 144.655 48.2201 140.59 48.2201C136.138 48.1722 131.584 45.2161 131.536 39.4476V31.8589C131.584 25.7482 135.207 23.1343 140.882 23.1343C146.558 23.1343 149.202 25.7482 149.25 31.8589V37.9696H138.041C138.089 40.0361 138.381 42.2532 140.882 42.2532C142.69 42.2532 143.574 41.2199 143.574 39.694ZM138.041 34.7192H143.669V32.5979C143.622 30.7777 143.329 29.0533 140.882 29.0533C138.435 29.0533 138.041 31.6126 138.041 33.7338V34.7192Z" fill="#FEFDF4"/>
<path d="M168.534 40.6314C168.486 44.3265 165.258 48.1243 159.33 48.1243C152.724 48.1243 150.813 44.7234 150.813 38.5169H156.346C156.346 40.4398 156.836 41.6236 159.33 41.6236C161.139 41.6236 161.825 40.6382 161.825 39.6528C162.07 35.1708 151.011 39.2081 150.813 30.6887C150.718 26.8978 153.995 23.1 159.969 23.1479C165.645 23.1479 168.486 25.7619 168.486 31.8725V32.7621H162.953C162.953 30.8872 162.464 29.6555 159.969 29.6555C158.155 29.6555 157.475 30.4424 157.42 31.4756C157.325 35.5677 168.779 31.8178 168.534 40.6382V40.6314Z" fill="#FEFDF4"/>
<path d="M187.716 40.6314C187.669 44.3265 184.44 48.1243 178.513 48.1243C171.906 48.1243 169.996 44.7234 169.996 38.5169H175.529C175.529 40.4398 176.018 41.6236 178.513 41.6236C180.321 41.6236 181.007 40.6382 181.007 39.6528C181.252 35.1708 170.193 39.2081 169.996 30.6887C169.901 26.8978 173.177 23.1 179.152 23.1479C184.827 23.1479 187.669 25.7619 187.669 31.8725V32.7621H182.136C182.136 30.8872 181.646 29.6555 179.152 29.6555C177.337 29.6555 176.657 30.4424 176.603 31.4756C176.508 35.5677 187.961 31.8178 187.716 40.6382V40.6314Z" fill="#FEFDF4"/>
<path d="M201.324 39.694H206.905C206.905 45.9004 202.405 48.2201 198.34 48.2201C193.888 48.1722 189.334 45.2161 189.286 39.4476V31.8589C189.334 25.7482 192.957 23.1343 198.633 23.1343C204.308 23.1343 206.952 25.7482 207 31.8589V37.9696H195.791C195.839 40.0361 196.131 42.2532 198.633 42.2532C200.441 42.2532 201.324 41.2199 201.324 39.694ZM195.791 34.7192H201.419V32.5979C201.372 30.7777 201.08 29.0533 198.633 29.0533C196.186 29.0533 195.791 31.6126 195.791 33.7338V34.7192Z" fill="#FEFDF4"/>
<path d="M37.3602 47.2415C37.0475 47.5974 36.7688 47.9463 36.4561 48.268C36.0347 48.6991 35.6269 49.137 35.1579 49.5065C34.0907 50.3413 33.4857 50.4098 32.235 49.9239C32.1942 50.3687 32.1535 50.8067 32.1059 51.2446C32.0855 51.4225 32.0583 51.6004 32.0039 51.7715C31.6165 53.0579 30.9028 54.0844 29.5229 54.3581C28.1159 54.6386 27.0215 54.0023 26.1651 52.9142C25.1387 51.6004 24.9415 50.0539 25.1183 48.4664C25.2746 47.0157 25.7164 45.6471 26.5797 44.4497C27.1778 43.6148 27.9323 43.0263 28.9655 42.8211C30.4881 42.5131 31.8816 43.2727 32.3846 44.7439C32.5613 45.2503 32.6361 45.7977 32.7856 46.3177C32.874 46.6257 33.0099 46.9131 33.1255 47.2073C33.9004 46.8994 34.213 46.5367 34.8656 45.1887C34.6617 44.9902 34.4374 44.7576 34.2062 44.5455C32.0243 42.5542 30.0463 40.385 28.5781 37.7984C27.6537 36.1698 26.9535 34.4591 26.6205 32.5979C25.9068 28.5879 28.5849 25.2897 32.6293 25.1392C34.9403 25.057 36.9863 25.7619 38.8828 26.9867C39.4062 27.322 39.7732 27.3426 40.317 27.0073C42.2134 25.8371 44.2798 25.1939 46.5161 25.1871C49.8196 25.1734 52.0219 27.2125 52.3958 30.5245C52.6269 32.591 52.1783 34.5344 51.4034 36.4162C50.4042 38.8385 48.9224 40.9393 47.1075 42.8005C46.9036 43.0127 46.6385 43.1632 46.3802 43.3616C47.7261 43.998 48.9156 44.5591 50.1323 45.1339C50.6217 43.3822 51.9336 42.4105 53.6193 41.9315C54.2311 41.7604 54.9312 41.7399 55.5633 41.8425C56.6373 42.0136 57.3782 43.0948 57.3986 44.3196C57.4054 45.0929 57.1879 45.8182 56.7868 46.4614C55.4478 48.6306 53.5581 50.0608 51.0431 50.5672C49.6361 50.8477 48.5825 50.2113 48.1067 48.8428C48.0183 48.5896 47.9504 48.3227 47.862 48.0695C47.2774 46.4683 46.0199 45.7703 44.4294 45.5856C44.1507 45.5513 43.8108 45.7361 43.5525 45.9072C42.6077 46.5367 41.6901 47.2142 40.752 47.8642C40.4801 48.049 40.1743 48.179 39.9024 48.3638C39.5285 48.6238 39.1955 48.5896 38.842 48.3227C38.3662 47.96 37.8768 47.6316 37.3602 47.2621V47.2415ZM39.0527 27.7873C36.7552 26.364 34.4849 25.3923 31.8408 25.8782C30.1551 26.193 28.7616 27.0141 27.8372 28.5127C27.0147 29.8539 27.0487 31.3182 27.3342 32.7963C27.6469 34.4386 28.2926 35.9508 29.1219 37.3947C31.5553 41.6372 35.1715 44.7165 38.9983 47.5974C39.3518 47.8642 39.6305 47.7958 39.9703 47.57C42.1999 46.1056 44.3614 44.5455 46.2714 42.6637C48.6369 40.3303 50.4518 37.6479 51.3762 34.4112C51.852 32.7347 51.9947 31.0445 51.4714 29.3407C50.812 27.1783 49.1263 25.9056 46.8832 25.8508C43.9536 25.7824 41.3842 26.7335 39.1207 28.5879C37.9855 29.5186 37.1971 30.6476 36.8844 32.0778C36.2454 35.0407 36.5581 37.8121 38.5837 40.2139C38.774 40.4397 38.8216 40.6245 38.5157 40.7819C37.3874 40.2071 36.3814 38.3937 36.0755 36.1835C35.6269 32.94 36.1299 29.9907 39.0459 27.7805L39.0527 27.7873ZM44.878 44.956C45.1091 45.0313 45.3198 45.1203 45.5373 45.175C47.0735 45.5856 48.0659 46.5778 48.5689 48.0832C48.6641 48.3706 48.7456 48.658 48.8612 48.9317C49.1127 49.5476 49.5885 49.876 50.241 49.9034C50.5945 49.9171 50.9616 49.9034 51.3014 49.8144C53.3882 49.267 54.9856 48.0353 56.1411 46.2083C56.5149 45.6198 56.7257 44.9697 56.6985 44.2512C56.6509 43.0811 55.8012 42.2394 54.6525 42.3626C53.2998 42.5063 52.1375 43.0948 51.2878 44.2033C50.7712 44.8739 50.6489 45.6061 51.0703 46.3862C51.1723 46.5709 51.281 46.7557 51.3286 46.9541C51.3626 47.0773 51.2946 47.221 51.2742 47.3579C51.1179 47.3305 50.8936 47.3579 50.812 47.2621C50.6421 47.0636 50.5469 46.7967 50.4042 46.5641C50.2818 46.3588 50.1799 46.1193 50.0099 45.9824C49.0107 45.2092 47.9368 44.6002 46.6997 44.2649C45.884 44.0459 45.3198 44.2033 44.8712 44.9423L44.878 44.956ZM31.7864 48.2748C32.0107 48.5485 32.2146 48.788 32.405 49.0275C32.8536 49.5818 33.343 49.7186 33.9955 49.4723C34.8452 49.1575 36.3338 47.6863 36.762 46.7352C36.3338 46.3793 35.8988 46.0235 35.4366 45.6335C35.1239 46.1056 34.8656 46.5436 34.5529 46.9473C34.1926 47.4194 33.8052 47.9737 33.1119 47.83C32.4254 47.6863 32.2894 47.0226 32.1263 46.4409C31.9835 45.9209 31.902 45.3803 31.7184 44.8739C31.3718 43.9433 30.6852 43.4643 29.5773 43.4232C31.0455 44.6823 31.2018 46.1877 30.6513 47.8232C30.4609 48.3911 30.1822 48.9249 29.9307 49.4723C29.3462 50.7724 29.72 51.9015 30.5833 53.2153C30.7056 52.969 30.76 52.8321 30.8416 52.709C31.4194 51.8125 31.6437 50.8409 31.4397 49.7802C31.3446 49.2807 31.2698 48.7743 31.7796 48.268L31.7864 48.2748Z" fill="black"/>
<path d="M23.8401 34.6644C22.4331 35.5129 20.8765 36.0603 19.3811 36.7446C19.1296 36.8609 18.8373 36.8746 18.3751 36.9773C18.5519 36.6557 18.5994 36.4504 18.715 36.4025C20.2308 35.7113 21.7534 35.0407 23.2828 34.3838C23.4187 34.3291 23.609 34.4044 23.7722 34.418C23.7926 34.5002 23.8197 34.5891 23.8401 34.6712V34.6644Z" fill="black"/>
<path d="M24.0306 26.5967C23.813 26.4735 23.6159 26.4051 23.4664 26.2751C22.5556 25.5087 21.6583 24.7286 20.7543 23.9554C20.7067 23.9143 20.6455 23.8869 20.6251 23.8322C20.5707 23.6817 20.5368 23.5243 20.496 23.3669C20.6523 23.3669 20.8154 23.3395 20.965 23.3601C21.0398 23.3669 21.1077 23.4559 21.1757 23.5106C22.0593 24.2565 22.9498 25.0092 23.8266 25.7619C24.0374 25.9466 24.3364 26.1177 24.0238 26.5967H24.0306Z" fill="black"/>
<path d="M20.0269 30.3465C20.8153 30.0386 21.5291 30.2028 22.202 30.2986C22.8409 30.3876 23.5546 30.2507 24.2344 30.675C24.078 30.8461 23.9965 30.9966 23.9217 30.9898C22.739 30.9076 21.5494 30.8187 20.3667 30.7024C20.2648 30.6955 20.1832 30.5176 20.0269 30.3534V30.3465Z" fill="black"/>
<path d="M39.0524 27.7873C36.1364 30.0044 35.6334 32.9537 36.082 36.1903C36.3879 38.4006 37.4007 40.2139 38.5222 40.7887C38.8213 40.6382 38.7805 40.4466 38.5902 40.2208C36.5578 37.8189 36.2519 35.0476 36.8909 32.0846C37.1968 30.6545 37.9921 29.5186 39.1272 28.5948C41.3975 26.7404 43.9601 25.7892 46.8897 25.8577C49.1328 25.9056 50.8185 27.1852 51.4779 29.3475C52.0013 31.0514 51.8585 32.7415 51.3827 34.418C50.4583 37.6547 48.6434 40.3371 46.2779 42.6705C44.3679 44.5523 42.2064 46.1125 39.9769 47.5768C39.637 47.7958 39.3583 47.8711 39.0048 47.6042C35.178 44.7234 31.5618 41.6441 29.1284 37.4015C28.2991 35.9645 27.6534 34.4454 27.3407 32.8031C27.0552 31.3251 27.028 29.8607 27.8437 28.5195C28.7613 27.0209 30.1548 26.1998 31.8473 25.885C34.4914 25.3923 36.7617 26.3709 39.0592 27.7942L39.0524 27.7873Z" fill="#FCFCFC"/>
<path d="M44.8777 44.9561C45.3264 44.2102 45.8905 44.0528 46.7062 44.2786C47.9433 44.6139 49.0173 45.2298 50.0165 45.9962C50.1932 46.133 50.2952 46.3725 50.4107 46.5778C50.5467 46.8105 50.6418 47.0773 50.8186 47.2758C50.9001 47.3716 51.1245 47.3442 51.2808 47.3716C51.3012 47.2347 51.3692 47.091 51.3352 46.9678C51.2808 46.7694 51.172 46.5778 51.0769 46.3999C50.6554 45.6198 50.7778 44.8876 51.2944 44.217C52.144 43.1085 53.2996 42.52 54.659 42.3763C55.8078 42.2531 56.6574 43.088 56.705 44.2649C56.7322 44.9834 56.5215 45.6335 56.1476 46.222C54.9921 48.0422 53.3948 49.2739 51.308 49.8282C50.9681 49.9171 50.6011 49.9308 50.2476 49.9171C49.5951 49.8897 49.1193 49.5613 48.8678 48.9454C48.7522 48.6717 48.6706 48.3775 48.5755 48.0969C48.0725 46.5915 47.0801 45.5993 45.5439 45.1887C45.3264 45.1271 45.1157 45.045 44.8845 44.9697L44.8777 44.9561Z" fill="#FCFCFC"/>
<path d="M31.7865 48.2749C31.2768 48.7813 31.3515 49.2876 31.4467 49.7872C31.6506 50.8478 31.4195 51.8127 30.8485 52.7159C30.767 52.8391 30.7126 52.9828 30.5902 53.2223C29.727 51.9153 29.3531 50.7794 29.9377 49.4792C30.1824 48.9318 30.4679 48.3981 30.6582 47.8301C31.2088 46.1878 31.0456 44.6893 29.5842 43.4302C30.6922 43.4644 31.3855 43.9502 31.7254 44.8809C31.9089 45.3872 31.9905 45.9278 32.1332 46.4479C32.2963 47.0295 32.4255 47.6933 33.1188 47.837C33.8121 47.9807 34.1928 47.4264 34.5598 46.9542C34.8657 46.5505 35.124 46.1126 35.4435 45.6404C35.9125 46.0236 36.3475 46.3863 36.769 46.7421C36.3475 47.7001 34.8521 49.1645 34.0025 49.4792C33.3499 49.7187 32.8605 49.5819 32.4119 49.0345C32.2148 48.795 32.0177 48.5555 31.7933 48.2817L31.7865 48.2749Z" fill="#FCFCFC"/>
</svg>
