<svg width="101" height="83" viewBox="0 0 101 83" fill="none" xmlns="http://www.w3.org/2000/svg">
<g opacity="0.99" clip-path="url(#clip0_467_431)">
<path d="M91.6651 40.168C90.4682 41.2279 89.263 42.2836 88.0744 43.3559C86.7905 44.5147 85.5314 45.6942 84.2517 46.8572C83.7133 47.3438 83.0797 47.7273 82.4874 47.0469C81.9821 46.4654 82.2596 45.8509 82.7897 45.3725C85.7095 42.7249 88.6169 40.0608 91.574 37.4503C92.1124 36.976 92.8206 36.6296 93.5122 36.4028C94.353 36.1265 94.6967 36.7987 94.9825 37.4462C96.0883 39.9866 97.1899 42.527 98.3081 45.0591C99.0205 46.6675 99.7577 48.2635 100.482 49.8677C100.59 50.1069 100.71 50.342 100.805 50.5812C101.062 51.2204 101.166 51.8926 100.42 52.2266C99.6997 52.5483 99.211 52.1194 98.9128 51.4555C98.6519 50.874 98.3785 50.3007 98.1135 49.7192C96.7923 46.7912 95.4712 43.8631 94.0092 40.6258C93.7524 41.7475 93.5288 42.5764 93.3714 43.4177C91.8556 51.5957 89.0642 59.2334 84.4878 66.2731C78.6482 75.251 70.2574 80.1957 59.9657 82.1217C51.1483 83.7713 42.4179 83.1692 34.0603 79.6926C27.2267 76.847 21.3084 72.657 16.616 66.8917C12.7768 62.1779 10.8676 56.6723 10.4327 50.6719C10.3375 49.3398 9.90259 48.4243 8.94176 47.5046C4.18725 42.927 0.936137 37.4957 0.174091 30.8436C-1.12636 19.5397 5.01556 8.42956 15.3943 3.30341C21.9131 0.0825506 28.7218 -1.03093 35.8411 1.08056C38.0983 1.74865 40.2063 2.77554 41.7387 4.62722C42.012 4.95714 41.8091 5.6706 41.8257 6.20672C41.3163 6.15723 40.6163 6.30157 40.3306 6.02114C37.4853 3.22918 33.8863 2.37963 30.1175 2.1693C16.6036 1.41048 4.93687 10.471 2.46851 23.7874C0.861589 32.4643 4.08786 39.6236 10.2878 45.9581C10.3954 45.4138 10.4783 45.0838 10.5238 44.7498C12.3544 30.79 25.069 19.6345 39.1958 19.5273C44.6295 19.4861 49.7899 20.3975 54.2296 23.7049C59.6633 27.7547 62.96 33.1696 63.1795 39.9742C63.3576 45.5334 60.9265 50.2059 56.7891 53.9422C52.3742 57.926 47.16 60.0169 41.2044 60.0788C31.1198 60.1819 21.9462 57.2868 13.688 51.5297C13.3566 51.2987 13.0212 51.0678 12.4124 50.9441C12.8141 52.8164 13.1247 54.7134 13.63 56.561C15.5185 63.4398 20.0121 68.3804 25.6198 72.5168C32.6231 77.6801 40.4093 80.4391 49.1562 80.7814C57.9032 81.1278 66.0206 79.3173 73.4506 74.6572C77.588 72.0632 80.5657 68.3928 83.2122 64.3719C87.5567 57.7693 89.9298 50.4533 91.3752 42.7785C91.5326 41.9496 91.7148 41.1248 91.8846 40.3C91.8142 40.2587 91.7396 40.2216 91.6692 40.1804L91.6651 40.168ZM39.8294 58.0498C44.3065 58.1157 48.506 57.1549 52.2872 54.7341C57.5594 51.3606 60.9472 46.7541 61.0797 40.3165C61.2288 32.9386 55.4762 25.1153 47.9634 22.8595C37.477 19.7129 28.2124 22.1667 20.3683 29.7466C15.6262 34.3284 12.9922 39.9494 12.4621 46.5273C12.3958 47.3397 12.4869 47.9995 13.2365 48.5851C21.0516 54.6887 29.9974 57.5961 39.8294 58.0498Z" fill="#F091FF"/>
</g>
<defs>
<clipPath id="clip0_467_431">
<rect width="101" height="83" fill="white"/>
</clipPath>
</defs>
</svg>
